<svg width="1920" height="908" viewBox="0 0 1920 908" fill="none" xmlns="http://www.w3.org/2000/svg">
<path d="M-536.539 534.037C-536.539 534.037 -501.539 297.503 -330.039 301.503C-158.539 305.503 -214.039 509.503 -27.5391 509.503C158.961 509.503 73.4609 169.503 255.461 145.503C437.461 121.503 386.961 301.503 549.461 286.038C711.961 270.572 564.461 22.9989 796.961 0.998921C1029.46 -21.0011 996.461 692.037 1211.46 749.037C1426.46 806.037 1276.96 437.498 1461.46 375.998C1645.96 314.498 1658.96 584.498 1851.96 599.537C2044.96 614.576 1943.96 271.072 2106.46 222.537C2268.96 174.003 2281.96 439.072 2406.96 492.038C2531.96 545.003 2541.46 379.033 2640.46 339.498C2739.46 299.964 2819.46 599.537 2819.46 599.537" stroke="black"/>
<path d="M-535.539 536.171C-535.539 536.171 -481.54 639.171 -367.54 602.602C-253.54 566.033 -261.54 349.602 -85.5396 335.102C90.4604 320.602 86.9604 568.24 210.46 536.171C333.96 504.102 329.46 382.043 361.96 275.533C394.46 169.023 400.96 37.9984 546.46 46.9984C691.96 55.9984 654.96 545.171 827.96 536.171C1000.96 527.171 1011.46 429.671 1190.46 454.671C1369.46 479.671 1413.46 682.171 1545.96 648.171C1678.46 614.171 1646.96 220.171 1837.96 247.171C2028.96 274.171 1965.46 640.671 2154.96 630.171C2344.46 619.671 2290.46 380.671 2447.96 369.171C2605.46 357.671 2816.96 600.171 2816.96 600.171" stroke="black"/>
<path d="M-536.516 534.061C-536.516 534.061 -501.052 305.808 -330.955 308.819C-160.857 311.829 -215.199 505.575 -28.9547 505.221C157.289 504.867 73.7893 179.2 254.362 155.003C434.936 130.806 385.558 303.439 544.887 285.753C704.216 268.066 560.472 23.336 790.85 2.09214C1021.23 -19.1518 988.131 688.426 1202.11 743.817C1416.08 799.207 1270.48 437.279 1454.85 377.888C1639.22 318.498 1652.97 586.852 1844.5 600.695C2036.02 614.538 1936.72 269.802 2099.91 223.11C2263.11 176.418 2274.24 443.96 2400.81 495.378C2527.39 546.796 2535.34 379.044 2635.76 340.193C2736.19 301.343 2819.4 599.524 2819.4 599.524" stroke="black"/>
<path d="M-536.492 534.085C-536.492 534.085 -500.565 314.113 -331.87 316.134C-163.175 318.155 -216.358 501.647 -30.3703 500.939C155.618 500.232 74.1176 188.897 253.264 164.503C432.41 140.11 384.154 305.375 540.313 285.468C696.471 265.561 556.483 23.6739 784.74 3.18605C1013 -17.3018 979.8 684.816 1192.75 738.597C1405.7 792.377 1264.01 437.06 1448.24 379.779C1632.47 322.499 1646.98 589.206 1837.03 601.853C2027.08 614.5 1929.47 268.532 2093.36 223.682C2257.25 178.833 2266.52 448.849 2394.67 498.719C2522.81 548.589 2529.22 379.056 2631.07 340.889C2732.92 302.722 2819.34 599.511 2819.34 599.511" stroke="black"/>
<path d="M-536.465 534.111C-536.465 534.111 -500.075 322.421 -332.782 323.453C-165.489 324.484 -217.514 497.721 -31.782 496.66C153.95 495.599 74.4497 198.597 252.169 174.007C429.889 149.416 382.755 307.314 535.742 285.187C688.73 263.059 552.499 24.0143 778.633 4.28263C1004.77 -15.4491 971.474 681.209 1183.4 733.38C1395.33 785.55 1257.54 436.843 1441.63 381.673C1625.73 326.502 1641 591.563 1829.57 603.014C2018.14 614.464 1922.23 267.265 2086.82 224.258C2251.4 181.25 2258.8 453.741 2388.52 502.063C2518.24 550.385 2523.1 379.07 2626.38 341.587C2729.66 304.104 2819.28 599.501 2819.28 599.501" stroke="black"/>
<path d="M-536.441 534.137C-536.441 534.137 -499.588 330.728 -333.698 330.77C-167.807 330.812 -218.673 493.795 -33.1975 492.38C152.278 490.965 74.7781 208.296 251.071 183.509C427.363 158.721 381.351 309.252 531.168 284.904C680.985 260.556 548.51 24.3536 772.522 5.378C996.534 -13.5976 963.144 677.6 1174.05 728.161C1384.95 778.722 1251.06 436.626 1435.02 383.565C1618.99 330.504 1635.01 593.919 1822.11 604.173C2009.2 614.428 1914.99 265.997 2080.27 224.832C2245.55 183.667 2251.08 458.631 2382.38 505.405C2513.67 552.179 2516.97 379.084 2621.68 342.285C2726.39 305.485 2819.22 599.49 2819.22 599.49" stroke="black"/>
<path d="M-536.418 534.163C-536.418 534.163 -499.101 339.036 -334.613 338.088C-170.125 337.141 -219.833 489.869 -34.6132 488.1C150.606 486.332 75.1064 217.995 249.972 193.011C424.838 168.027 379.948 311.191 526.594 284.622C673.24 258.053 544.521 24.6936 766.411 6.47412C988.301 -11.7454 954.814 673.992 1164.69 722.943C1374.57 771.895 1244.58 436.409 1428.41 385.458C1612.24 334.507 1629.02 596.275 1814.64 605.334C2000.27 614.392 1907.74 264.73 2073.72 225.407C2239.69 186.084 2243.36 463.523 2376.23 508.749C2509.09 553.975 2510.85 379.098 2616.98 342.982C2723.12 306.867 2819.16 599.48 2819.16 599.48" stroke="black"/>
<path d="M-536.391 534.19C-536.391 534.19 -498.61 347.344 -335.525 345.407C-172.439 343.47 -220.988 485.944 -36.0248 483.822C148.939 481.7 75.4386 227.695 248.878 202.515C422.317 177.334 378.548 313.13 522.024 284.341C665.5 255.552 540.536 25.0344 760.304 7.57101C980.073 -9.89241 946.487 670.385 1155.34 717.727C1364.19 765.068 1238.11 436.193 1421.8 387.352C1605.5 338.51 1623.04 598.632 1807.18 606.495C1991.33 614.357 1900.5 263.463 2067.17 225.983C2233.84 188.502 2235.65 468.415 2370.08 512.093C2504.52 555.771 2504.73 379.113 2612.29 343.681C2719.85 308.249 2819.1 599.47 2819.1 599.47" stroke="black"/>
<path d="M-536.367 534.218C-536.367 534.218 -498.123 355.653 -336.44 352.727C-174.758 349.8 -222.148 482.019 -37.4404 479.544C147.267 477.068 75.7669 237.396 247.779 212.019C419.791 186.641 377.145 315.07 517.45 284.06C657.755 253.05 536.547 25.376 754.194 8.66869C971.84 -8.03862 938.157 666.779 1145.99 712.51C1353.82 758.242 1231.63 435.978 1415.19 389.246C1598.75 342.515 1617.05 600.99 1799.72 607.657C1982.39 614.323 1893.25 262.198 2060.62 226.559C2227.99 190.921 2227.93 473.307 2363.94 515.438C2499.95 557.568 2498.61 379.128 2607.6 344.381C2716.58 309.633 2819.04 599.462 2819.04 599.462" stroke="black"/>
<path d="M-536.344 534.246C-536.344 534.246 -497.637 363.963 -337.356 360.047C-177.076 356.131 -223.307 478.096 -38.856 475.267C145.595 472.437 76.0952 247.098 246.681 221.524C417.266 195.95 375.741 317.011 512.876 283.781C650.01 250.55 532.559 25.7184 748.083 9.76719C963.607 -6.18403 929.827 663.173 1136.63 707.295C1343.44 751.417 1225.16 435.764 1408.58 391.142C1592.01 346.52 1611.06 603.349 1792.25 608.819C1973.45 614.29 1886.01 260.933 2054.07 227.137C2222.13 193.341 2220.21 478.201 2357.79 518.783C2495.38 559.365 2492.49 379.145 2602.9 345.081C2713.31 311.017 2818.97 599.454 2818.97 599.454" stroke="black"/>
<path d="M-536.32 534.278C-536.32 534.278 -497.15 372.276 -338.272 367.37C-179.394 362.465 -224.467 474.175 -40.2716 470.992C143.923 467.809 76.4235 256.803 245.582 231.032C414.741 205.261 374.338 318.955 508.302 283.504C642.265 248.053 528.57 26.0636 741.972 10.8685C955.375 -4.32664 921.497 659.57 1127.28 702.083C1333.06 744.595 1218.68 435.552 1401.97 393.04C1585.27 350.528 1605.07 605.711 1784.79 609.985C1964.51 614.259 1878.77 259.67 2047.52 227.717C2216.28 195.763 2212.48 483.097 2351.64 522.132C2490.8 561.166 2486.36 379.164 2598.2 345.784C2710.05 312.404 2818.91 599.448 2818.91 599.448" stroke="black"/>
<path d="M-536.297 534.308C-536.297 534.308 -496.663 380.587 -339.187 374.692C-181.712 368.798 -225.626 470.253 -41.6872 466.717C142.252 463.18 76.7518 266.506 244.484 240.538C412.215 214.57 372.935 320.898 503.727 283.226C634.52 245.554 524.581 26.4077 735.862 11.9687C947.142 -2.47034 913.166 655.967 1117.92 696.869C1322.68 737.772 1212.2 435.34 1395.36 394.937C1578.52 354.535 1599.08 608.071 1777.33 611.149C1955.57 614.228 1871.52 258.407 2040.97 228.296C2210.42 198.185 2204.76 487.993 2345.5 525.479C2486.23 562.965 2480.24 379.183 2593.51 346.486C2706.78 313.789 2818.85 599.442 2818.85 599.442" stroke="black"/>
<path d="M-536.27 534.339C-536.27 534.339 -496.172 388.9 -340.099 382.015C-184.026 375.131 -226.782 466.333 -43.0989 462.442C140.584 458.552 77.084 276.211 243.389 250.046C409.694 223.881 371.535 322.841 499.157 282.949C626.779 243.057 520.596 26.7527 729.755 13.0698C938.913 -0.613168 904.84 652.364 1108.57 691.656C1312.3 730.949 1205.73 435.128 1388.75 396.835C1571.78 358.542 1593.1 610.433 1769.86 612.315C1946.63 614.197 1864.28 257.145 2034.43 228.876C2204.57 200.607 2197.05 492.889 2339.35 528.827C2481.66 564.766 2474.12 379.202 2588.82 347.189C2703.51 315.176 2818.79 599.437 2818.79 599.437" stroke="black"/>
<path d="M-536.246 534.371C-536.246 534.371 -495.685 397.213 -341.015 389.339C-186.344 381.466 -227.941 462.413 -44.5145 458.169C138.912 453.925 77.4123 285.916 242.29 259.555C407.168 233.193 370.132 324.786 494.583 282.673C619.034 240.56 516.607 27.0986 723.644 14.1717C930.681 1.24491 896.51 648.761 1099.22 686.444C1301.92 724.127 1199.25 434.917 1382.14 398.734C1565.03 362.551 1587.11 612.795 1762.4 613.481C1937.69 614.167 1857.03 255.883 2027.88 229.457C2198.72 203.03 2189.33 497.786 2333.21 532.176C2477.08 566.567 2468 379.222 2584.12 347.893C2700.24 316.563 2818.73 599.432 2818.73 599.432" stroke="black"/>
<path d="M-536.223 534.404C-536.223 534.404 -495.198 405.527 -341.93 396.664C-188.662 387.801 -229.101 458.494 -45.9301 453.896C137.241 449.298 77.7406 295.622 241.192 269.064C404.643 242.506 368.728 326.731 490.009 282.397C611.289 238.064 512.619 27.4454 717.533 15.2747C922.448 3.10393 888.18 645.16 1089.86 681.234C1291.55 717.307 1192.78 434.707 1375.53 400.634C1558.29 366.561 1581.12 615.158 1754.94 614.648C1928.75 614.138 1849.79 254.623 2021.33 230.039C2192.86 205.454 2181.61 502.684 2327.06 535.526C2472.51 568.369 2461.88 379.243 2579.42 348.597C2696.97 317.952 2818.67 599.429 2818.67 599.429" stroke="black"/>
<path d="M-536.195 534.438C-536.195 534.438 -494.708 413.843 -342.842 403.99C-190.976 394.137 -230.256 454.575 -47.3418 449.624C135.573 444.673 78.0728 305.33 240.097 278.574C402.122 251.819 367.329 328.677 485.439 282.123C603.548 235.569 508.634 27.7932 711.427 16.3785C914.219 4.9639 879.853 641.56 1080.51 676.024C1281.17 710.487 1186.3 434.498 1368.93 402.535C1551.55 370.571 1575.13 617.522 1747.48 615.816C1919.82 614.11 1842.55 253.363 2014.78 230.621C2187.01 207.879 2173.89 507.583 2320.91 538.877C2467.94 570.172 2455.76 379.264 2574.73 349.303C2693.71 319.341 2818.61 599.426 2818.61 599.426" stroke="black"/>
<path d="M-536.172 534.475C-536.172 534.475 -494.221 422.161 -343.757 411.319C-193.294 400.476 -231.416 450.66 -48.7574 445.355C133.901 440.051 78.4011 315.04 238.999 288.088C399.596 261.136 365.925 330.626 480.865 281.852C595.804 233.077 504.645 28.1439 705.316 17.4853C905.987 6.82681 871.523 637.963 1071.16 670.817C1270.79 703.67 1179.83 434.292 1362.32 404.438C1544.8 374.585 1569.15 619.889 1740.01 616.987C1910.88 614.085 1835.3 252.107 2008.23 231.207C2181.16 210.307 2166.17 512.485 2314.77 542.231C2463.36 571.978 2449.63 379.289 2570.04 350.011C2690.44 320.734 2818.55 599.426 2818.55 599.426" stroke="black"/>
<path d="M-536.148 534.511C-536.148 534.511 -493.734 430.478 -344.673 418.647C-195.612 406.815 -232.575 446.744 -50.173 441.086C132.229 435.427 78.7294 324.749 237.9 297.6C397.071 270.451 364.522 332.575 476.29 281.58C588.059 230.584 500.656 28.4937 699.205 18.5912C897.754 8.68878 863.193 634.365 1061.8 665.609C1260.41 696.853 1173.35 434.085 1355.71 406.341C1538.06 378.597 1563.16 622.256 1732.55 618.157C1901.94 614.059 1828.06 250.849 2001.68 231.792C2175.3 212.734 2158.45 517.386 2308.62 545.584C2458.79 573.783 2443.51 379.313 2565.34 350.719C2687.17 322.125 2818.49 599.426 2818.49 599.426" stroke="black"/>
<path d="M-536.125 534.548C-536.125 534.548 -493.247 438.797 -345.589 425.975C-197.93 413.154 -233.735 442.829 -51.5886 436.817C130.558 430.805 79.0577 334.459 236.802 307.114C394.546 279.768 363.119 334.524 471.716 281.308C580.314 228.093 496.668 28.8445 693.094 19.6981C889.521 10.5518 854.863 630.768 1052.45 660.402C1250.03 690.036 1166.87 433.879 1349.09 408.245C1531.31 382.611 1557.17 624.623 1725.08 619.329C1893 614.034 1820.81 249.593 1995.13 232.378C2169.45 215.162 2150.73 522.288 2302.47 548.939C2454.22 575.589 2437.39 379.338 2560.64 351.428C2683.9 323.518 2818.42 599.426 2818.42 599.426" stroke="black"/>
<path d="M-536.102 534.586C-536.102 534.586 -492.76 447.116 -346.504 433.305C-200.248 419.495 -234.894 438.915 -53.0042 432.549C128.886 426.183 79.386 344.171 235.703 316.628C392.02 289.086 361.715 336.475 467.142 281.038C572.569 225.602 492.679 29.1964 686.984 20.8061C881.289 12.4159 846.532 627.172 1043.09 655.196C1239.65 683.22 1160.4 433.674 1342.48 410.15C1524.57 386.625 1551.18 626.991 1717.62 620.501C1884.06 614.01 1813.57 248.337 1988.58 232.964C2163.59 217.592 2143.01 527.191 2296.33 552.294C2449.64 577.396 2431.26 379.364 2555.95 352.138C2680.63 324.911 2818.36 599.428 2818.36 599.428" stroke="black"/>
<path d="M-536.074 534.626C-536.074 534.626 -492.27 455.436 -347.416 440.636C-202.562 425.836 -236.05 435.002 -54.4159 428.283C127.218 421.563 79.7182 353.883 234.608 326.144C389.499 298.405 360.316 338.426 462.572 280.769C564.828 223.112 488.694 29.5493 680.877 21.9152C873.06 14.281 838.206 623.577 1033.74 649.991C1229.28 676.406 1153.93 433.47 1335.88 412.056C1517.83 390.641 1545.19 629.361 1710.16 621.674C1875.12 613.988 1806.33 247.083 1982.04 233.552C2157.74 220.022 2135.29 532.095 2290.18 555.65C2445.07 579.205 2425.15 379.391 2551.26 352.848C2677.36 326.306 2818.3 599.43 2818.3 599.43" stroke="black"/>
<path d="M-536.051 534.666C-536.051 534.666 -491.783 463.758 -348.332 447.968C-204.88 432.179 -237.21 431.091 -55.8315 424.017C125.547 416.944 80.0465 363.597 233.51 335.661C386.973 307.725 358.912 340.379 457.998 280.501C557.083 220.624 484.705 29.9035 674.766 23.0254C864.827 16.1474 829.876 619.983 1024.39 644.788C1218.9 669.593 1147.45 433.268 1329.27 413.963C1511.08 394.658 1539.21 631.731 1702.69 622.849C1866.18 613.966 1799.08 245.83 1975.49 234.142C2151.89 222.453 2127.57 537 2284.03 559.007C2440.5 581.014 2419.02 379.419 2546.56 353.56C2674.1 327.701 2818.24 599.434 2818.24 599.434" stroke="black"/>
<path d="M-536.027 534.709C-536.027 534.709 -491.296 472.083 -349.247 455.304C-207.198 438.525 -238.369 427.182 -57.2471 419.755C123.875 412.328 80.3748 373.313 232.411 345.181C384.448 317.048 357.509 342.335 453.424 280.236C549.338 218.138 480.716 30.2607 668.655 24.1388C856.594 18.0168 821.546 616.392 1015.03 639.587C1208.52 662.782 1140.97 433.068 1322.66 415.873C1504.34 398.678 1533.22 634.105 1695.23 624.026C1857.24 613.948 1791.84 244.58 1968.94 234.734C2146.03 224.888 2119.85 541.909 2277.89 562.368C2435.92 582.827 2412.9 379.451 2541.86 354.276C2670.83 329.1 2818.18 599.441 2818.18 599.441" stroke="black"/>
<path d="M-536.004 534.752C-536.004 534.752 -490.809 480.407 -350.163 462.638C-209.516 444.87 -239.529 423.273 -58.6627 415.492C122.203 407.712 80.7032 383.029 231.313 354.7C381.923 326.37 356.106 344.29 448.849 279.971C541.593 215.652 476.727 30.6172 662.545 25.2513C848.362 19.8855 813.215 612.801 1005.68 634.386C1198.14 655.972 1134.5 432.868 1316.04 417.783C1497.59 402.697 1527.23 636.478 1687.76 625.203C1848.3 613.928 1784.59 243.329 1962.39 235.325C2140.18 227.322 2112.13 546.817 2271.74 565.728C2431.35 584.639 2406.78 379.481 2537.17 354.99C2667.56 330.498 2818.12 599.447 2818.12 599.447" stroke="black"/>
<path d="M-535.977 534.796C-535.977 534.796 -490.318 488.732 -351.074 469.974C-211.831 451.216 -240.684 419.364 -60.0744 411.23C120.535 403.096 81.0353 392.746 230.218 364.22C379.401 335.694 354.706 346.246 444.279 279.707C533.852 213.167 472.743 30.9749 656.438 26.3652C840.133 21.7554 804.889 609.211 996.328 629.186C1187.77 649.162 1128.02 432.669 1309.44 419.693C1490.85 406.718 1521.24 638.852 1680.3 626.381C1839.36 613.91 1777.35 242.079 1955.84 235.918C2134.33 229.757 2104.41 551.725 2265.6 569.089C2426.78 586.452 2400.66 379.513 2532.47 355.706C2664.29 331.898 2818.06 599.454 2818.06 599.454" stroke="black"/>
<path d="M-535.953 534.841C-535.953 534.841 -489.831 497.059 -351.99 477.311C-214.149 457.563 -241.844 415.458 -61.49 406.97C118.864 398.482 81.3636 402.465 229.12 373.742C376.876 345.019 353.303 348.203 439.705 279.444C526.108 210.684 468.754 31.334 650.327 27.4803C831.9 23.6266 796.559 605.622 986.973 623.987C1177.39 642.353 1121.55 432.471 1302.83 421.605C1484.11 410.739 1515.25 641.227 1672.84 627.56C1830.42 613.894 1770.11 240.831 1949.29 236.512C2128.47 232.193 2096.69 556.636 2259.45 572.451C2422.21 588.266 2394.53 379.546 2527.78 356.422C2661.02 333.298 2818 599.463 2818 599.463" stroke="black"/>
<path d="M-535.93 534.888C-535.93 534.888 -489.345 505.386 -352.906 484.649C-216.467 463.912 -243.003 411.552 -62.9056 402.711C117.192 393.869 81.692 412.185 228.021 383.265C374.351 354.345 351.899 350.162 435.131 279.182C518.363 208.201 464.765 31.6943 644.216 28.5967C823.668 25.4992 788.229 602.034 977.619 618.79C1167.01 635.546 1115.07 432.275 1296.22 423.519C1477.36 414.763 1509.27 643.604 1665.38 628.741C1821.49 613.878 1762.86 239.584 1942.74 237.107C2122.62 234.63 2088.97 561.547 2253.3 575.814C2417.63 590.082 2388.41 379.581 2523.08 357.141C2657.75 334.7 2817.94 599.473 2817.94 599.473" stroke="black"/>
<path d="M-535.906 534.936C-535.906 534.936 -488.858 513.716 -353.821 491.989C-218.785 470.263 -244.163 407.648 -64.3212 398.453C115.52 389.258 82.0203 421.906 226.923 392.789C371.825 363.672 350.496 352.123 430.557 278.921C510.618 205.72 460.776 32.056 638.106 29.7145C815.435 27.3731 779.898 598.448 968.264 613.594C1156.63 628.74 1108.59 432.08 1289.61 425.433C1470.62 418.787 1503.28 645.982 1657.91 629.923C1812.55 613.864 1755.62 238.338 1936.19 237.704C2116.76 237.069 2081.25 566.46 2247.15 579.179C2413.06 591.899 2382.29 379.617 2518.39 357.86C2654.48 336.104 2817.87 599.484 2817.87 599.484" stroke="black"/>
<path d="M-535.879 534.987C-535.879 534.987 -488.367 522.048 -354.733 499.332C-221.099 476.616 -245.318 403.747 -65.7329 394.198C113.852 384.649 82.3524 431.63 225.828 402.317C369.304 373.003 349.096 354.086 425.987 278.665C502.877 203.243 456.791 32.421 631.999 30.8357C807.206 29.2503 771.572 594.865 958.913 608.401C1146.25 621.938 1102.12 431.888 1283 427.351C1463.88 422.815 1497.29 648.364 1650.45 631.109C1803.61 613.854 1748.38 237.096 1929.65 238.304C2110.91 239.512 2073.54 571.376 2241.01 582.548C2408.49 593.719 2376.17 379.656 2513.69 358.583C2651.22 337.51 2817.82 599.499 2817.82 599.499" stroke="black"/>
<path d="M-535.855 535.038C-535.855 535.038 -487.88 530.38 -355.648 506.675C-223.417 482.969 -246.478 399.846 -67.1485 389.943C112.181 380.041 82.6808 441.354 224.73 411.844C366.778 382.334 347.693 356.049 421.412 278.407C495.132 200.765 452.803 32.7856 625.888 31.9563C798.973 31.127 763.242 591.281 949.559 603.208C1135.88 615.135 1095.64 431.696 1276.39 429.269C1457.13 426.842 1491.3 650.744 1642.99 632.293C1794.67 613.842 1741.13 235.853 1923.1 238.903C2105.06 241.954 2065.82 576.292 2234.86 585.915C2403.91 595.539 2370.05 379.694 2509 359.306C2647.95 338.917 2817.75 599.513 2817.75 599.513" stroke="black"/>
<path d="M-535.832 535.09C-535.832 535.09 -487.393 538.714 -356.564 514.019C-225.735 489.324 -247.637 395.946 -68.5641 385.69C110.509 375.434 83.0091 451.08 223.631 421.373C364.253 391.665 346.29 358.014 416.838 278.151C487.387 198.288 448.814 33.1516 619.777 33.0784C790.741 33.0053 754.912 587.7 940.204 598.017C1125.5 608.334 1089.17 431.505 1269.78 431.188C1450.39 430.871 1485.31 653.127 1635.52 633.48C1785.73 613.833 1733.89 234.612 1916.55 239.504C2099.2 244.397 2058.1 581.209 2228.72 589.285C2399.34 597.36 2363.92 379.735 2504.3 360.029C2644.68 340.324 2817.69 599.529 2817.69 599.529" stroke="black"/>
<path d="M-535.809 535.145C-535.809 535.145 -486.907 547.05 -357.48 521.366C-228.053 495.681 -248.797 392.049 -69.9797 381.439C108.837 370.83 83.3374 460.808 222.533 430.904C361.728 401 344.886 359.981 412.264 277.898C479.642 195.815 444.825 33.5207 613.667 34.2036C782.508 34.8866 746.581 584.121 930.85 592.828C1115.12 601.535 1082.69 431.317 1263.17 433.11C1443.64 434.903 1479.33 655.512 1628.06 634.669C1776.79 613.826 1726.64 233.374 1910 240.108C2093.35 246.843 2050.37 586.13 2222.57 592.657C2394.76 599.185 2357.8 379.778 2499.61 360.756C2641.41 341.735 2817.63 599.547 2817.63 599.547" stroke="black"/>
<path d="M-535.781 535.206C-535.781 535.206 -486.416 555.392 -358.391 528.718C-230.367 502.045 -249.952 388.158 -71.3914 377.194C107.17 366.231 83.6696 470.542 221.438 440.441C359.206 410.341 343.487 361.954 407.694 277.65C471.901 193.346 440.84 33.8952 607.56 35.3342C774.279 36.7732 738.255 580.547 921.499 587.645C1104.74 594.742 1076.22 431.135 1256.56 435.038C1436.9 438.94 1473.34 657.903 1620.6 635.864C1767.85 613.825 1719.4 232.141 1903.45 240.718C2087.5 249.295 2042.66 591.055 2216.43 596.035C2390.19 601.014 2351.68 379.826 2494.91 361.489C2638.15 343.151 2817.57 599.571 2817.57 599.571" stroke="black"/>
<path d="M-535.758 535.272C-535.758 535.272 -485.929 563.74 -359.307 536.077C-232.685 508.413 -251.112 384.272 -72.807 372.955C105.498 361.638 83.9979 480.282 220.339 449.984C356.681 419.687 342.083 363.933 403.12 277.409C464.156 190.884 436.852 34.2753 601.449 36.4704C766.047 38.6655 729.925 576.979 912.144 582.467C1094.36 587.955 1069.74 430.958 1249.95 436.971C1430.16 442.983 1467.35 660.3 1613.13 637.064C1758.91 613.829 1712.16 230.914 1896.9 241.333C2081.64 251.752 2034.94 595.987 2210.28 599.418C2385.62 602.85 2345.56 379.881 2490.22 362.227C2634.88 344.573 2817.51 599.601 2817.51 599.601" stroke="black"/>
<path d="M-535.734 535.346C-535.734 535.346 -485.442 572.095 -360.223 543.443C-235.003 514.79 -252.271 380.394 -74.2226 368.723C103.826 357.053 84.3262 490.029 219.241 459.535C354.155 429.04 340.68 365.92 398.546 277.174C456.412 188.429 432.863 34.6632 595.338 37.6144C757.814 40.5657 721.595 573.419 902.79 577.297C1083.98 581.175 1063.27 430.79 1243.34 438.912C1423.41 447.034 1461.36 662.704 1605.67 638.273C1749.97 613.841 1704.91 229.694 1890.35 241.956C2075.79 254.218 2027.22 600.926 2204.13 602.809C2381.05 604.693 2339.44 379.943 2485.52 362.973C2631.61 346.002 2817.45 599.639 2817.45 599.639" stroke="black"/>
<path d="M-535.711 535.425C-535.711 535.425 -484.955 580.455 -361.138 550.813C-237.321 521.17 -253.431 376.52 -75.6382 364.496C102.154 352.471 84.6545 499.781 218.142 469.089C351.63 438.398 339.276 367.91 393.972 276.945C448.667 185.979 428.874 35.0553 589.228 38.7627C749.581 42.47 713.264 569.864 893.435 572.132C1073.61 574.4 1056.79 430.625 1236.73 440.857C1416.67 451.088 1455.37 665.113 1598.2 639.485C1741.03 613.858 1697.67 228.479 1883.8 242.583C2069.94 256.687 2019.5 605.869 2197.98 606.205C2376.47 606.54 2333.31 380.009 2480.83 363.723C2628.34 347.436 2817.39 599.68 2817.39 599.68" stroke="black"/>
<path d="M-535.684 535.509C-535.684 535.509 -484.465 588.821 -362.05 558.189C-239.635 527.557 -254.586 372.653 -77.0499 360.275C100.487 347.897 84.9867 509.539 217.048 478.651C349.109 447.763 337.877 369.907 389.401 276.721C440.926 183.535 424.889 35.4539 583.121 39.9173C741.353 44.3807 704.938 566.314 884.084 566.973C1063.23 567.631 1050.32 430.467 1230.12 442.808C1409.93 455.15 1449.39 667.528 1590.74 640.704C1732.1 613.88 1690.43 227.27 1877.26 243.217C2064.08 259.163 2011.78 610.819 2191.84 609.607C2371.9 608.394 2327.19 380.082 2476.13 364.479C2625.07 348.876 2817.33 599.728 2817.33 599.728" stroke="black"/>
<path d="M-535.66 535.601C-535.66 535.601 -483.978 597.194 -362.965 565.572C-241.953 533.951 -255.746 368.792 -78.4655 356.061C98.815 343.329 85.315 519.303 215.949 488.218C346.583 457.134 336.474 371.911 384.827 276.504C433.181 181.097 420.9 35.8591 577.01 41.0786C733.12 46.2981 696.608 562.771 874.73 561.82C1052.85 560.869 1043.84 430.315 1223.51 444.766C1403.18 459.218 1443.4 669.949 1583.28 641.93C1723.16 613.91 1683.18 226.068 1870.71 243.857C2058.23 261.645 2004.06 615.775 2185.69 613.015C2367.33 610.255 2321.07 380.161 2471.44 365.242C2621.8 350.323 2817.27 599.783 2817.27 599.783" stroke="black"/>
<path d="M-535.637 535.699C-535.637 535.699 -483.491 605.573 -363.881 572.963C-244.271 540.352 -256.905 364.939 -79.8811 351.853C97.1433 338.768 85.6433 529.075 214.851 497.793C344.058 466.512 335.07 373.922 380.253 276.294C425.436 178.667 416.912 36.2713 570.899 42.2469C724.887 48.2225 688.277 559.236 865.375 556.675C1042.47 554.114 1037.36 430.171 1216.9 446.732C1396.44 463.293 1437.41 672.378 1575.81 643.162C1714.22 613.946 1675.94 224.873 1864.16 244.504C2052.38 264.135 1996.34 620.739 2179.55 616.43C2362.75 612.122 2314.95 380.247 2466.74 366.012C2618.53 351.777 2817.21 599.845 2817.21 599.845" stroke="black"/>
<path d="M-535.613 535.805C-535.613 535.805 -483.004 613.96 -364.797 580.36C-246.589 546.76 -258.065 361.092 -81.2967 347.653C95.4716 334.214 85.9716 538.854 213.752 507.375C341.533 475.897 333.667 375.94 375.679 276.092C417.691 176.244 412.923 36.6907 564.789 43.4225C716.655 50.1542 679.947 555.707 856.02 551.536C1032.09 547.366 1030.89 430.033 1210.29 448.704C1389.69 467.375 1431.42 674.814 1568.35 644.402C1705.28 613.99 1668.69 223.685 1857.61 245.158C2046.52 266.631 1988.62 625.709 2173.4 619.853C2358.18 613.997 2308.83 380.341 2462.05 366.789C2615.26 353.238 2817.14 599.914 2817.14 599.914" stroke="black"/>
<path d="M-535.586 535.92C-535.586 535.92 -482.513 622.357 -365.708 587.767C-248.903 553.178 -259.221 357.255 -82.7083 343.463C93.8038 329.67 86.3038 548.642 212.657 516.967C339.011 485.292 332.267 377.968 371.109 275.899C409.95 173.83 408.938 37.1198 558.682 44.6076C708.426 52.0954 671.621 552.188 846.67 546.408C1021.72 540.627 1024.41 429.906 1203.68 450.686C1382.95 471.467 1425.44 677.259 1560.89 645.651C1696.34 614.044 1661.45 222.507 1851.06 245.822C2040.67 269.138 1980.9 630.69 2167.26 623.286C2353.61 615.881 2302.71 380.444 2457.35 367.576C2612 354.709 2817.08 599.993 2817.08 599.993" stroke="black"/>
<path d="M-535.562 536.042C-535.562 536.042 -482.026 630.76 -366.624 595.181C-251.222 559.601 -260.38 353.425 -84.124 339.278C92.1321 325.132 86.6321 558.437 211.559 526.565C336.486 494.693 330.864 380.001 366.535 275.712C402.205 171.423 404.949 37.5551 552.571 45.799C700.193 54.0429 663.291 548.676 837.315 541.285C1011.34 533.895 1017.94 429.784 1197.07 452.674C1376.21 475.565 1419.45 679.711 1553.43 646.907C1687.4 614.103 1654.21 221.335 1844.51 246.493C2034.82 271.65 1973.18 635.676 2161.11 626.724C2349.04 617.772 2296.58 380.553 2452.66 368.37C2608.73 356.186 2817.02 600.078 2817.02 600.078" stroke="black"/>
<path d="M-612.477 566.51C-612.477 566.51 -564.23 453.924 -448.859 482.071C-333.487 510.218 -321.95 700.322 -180.357 642.183C-38.765 584.044 31.5068 335.804 197.747 333.036C363.987 330.267 339.339 558.205 491.42 566.51C643.501 574.815 785.093 340.418 821.278 303.966C857.463 267.514 1024.23 117.557 1147.99 169.235C1271.75 220.914 1377.16 910.726 1519.8 907.496C1662.44 904.266 1747.4 435.01 1857 417.476C1966.6 399.943 2104 553.594 2231.96 564.668C2359.92 575.742 2454.31 457.616 2558.67 459.462C2663.03 461.307 2902.16 628.34 2902.16 628.34" stroke="black"/>
<path d="M-613 564.828C-613 564.828 -556.364 659.879 -436.797 626.132C-317.23 592.385 -325.62 392.656 -141.026 379.275C43.5689 365.894 39.898 594.422 169.429 564.828C298.96 535.234 294.24 422.594 328.327 324.303C362.414 226.013 369.231 105.099 521.837 113.404C674.442 121.71 635.635 573.133 817.083 564.828C998.531 556.522 1009.54 466.546 1197.29 489.617C1385.03 512.687 1431.18 699.56 1570.15 668.184C1709.12 636.808 1676.08 273.213 1876.41 298.13C2076.73 323.046 2010.13 661.263 2208.89 651.573C2407.64 641.884 2351 421.327 2516.19 410.715C2681.38 400.102 2903.21 623.888 2903.21 623.888" stroke="black"/>
<path d="M-612.488 557.37C-612.488 557.37 -599.34 532.228 -570.586 507.377C-541.833 482.527 -502.131 457.06 -441.349 470.464C-324.289 497.599 -313.123 688.64 -171.825 631.197C-30.5268 573.754 37.916 328.822 200.933 323.723C363.95 318.625 340.069 538.054 492.163 546.359C644.257 554.665 781.449 336.994 821.177 301.229C860.904 265.464 1023.87 116.969 1149.19 167.95C1274.52 218.931 1378.48 896.476 1521.03 892.559C1663.58 888.643 1745.66 421.964 1857.47 405.466C1969.29 388.968 2101.71 547.12 2231.4 557.688C2361.08 568.255 2451.79 447.632 2557.63 449.173C2663.48 450.715 2902.19 619.132 2902.19 619.132" stroke="black"/>
<path d="M-612.5 548.227C-612.5 548.227 -598.264 526.09 -567.24 501.017C-536.217 475.945 -497.717 446.122 -433.84 458.856C-315.092 484.977 -304.297 676.956 -163.293 620.209C-22.2885 563.462 44.3251 321.837 204.119 314.409C363.912 306.981 340.8 517.901 492.906 526.207C645.012 534.512 777.805 333.569 821.075 298.49C864.346 263.412 1023.51 116.38 1150.4 166.663C1277.28 216.946 1379.8 882.224 1522.26 877.621C1664.72 873.019 1743.92 408.917 1857.95 393.454C1971.98 377.991 2099.42 540.645 2230.83 550.706C2362.25 560.767 2449.27 437.645 2556.6 438.883C2663.93 440.121 2902.22 609.922 2902.22 609.922" stroke="black"/>
<path d="M-612.516 539.087C-612.516 539.087 -597.192 519.955 -563.898 494.66C-530.604 469.364 -493.307 435.185 -426.335 447.25C-305.898 472.358 -295.474 665.274 -154.764 609.223C-14.0542 553.173 50.7304 314.855 207.301 305.097C363.871 295.339 341.526 497.751 493.645 506.056C645.764 514.362 774.156 330.146 820.97 295.754C867.784 261.361 1023.15 115.793 1151.6 165.378C1280.04 214.963 1381.11 867.975 1523.48 862.685C1665.86 857.396 1742.18 395.872 1858.42 381.444C1974.66 367.016 2097.13 534.172 2230.27 543.727C2363.41 553.282 2446.75 427.661 2555.56 428.595C2664.37 429.529 2902.24 600.714 2902.24 600.714" stroke="black"/>
<path d="M-612.527 529.947C-612.527 529.947 -596.117 513.82 -560.553 488.302C-524.988 462.785 -488.893 424.249 -418.826 435.644C-296.701 459.739 -286.647 653.592 -146.232 598.238C-5.81596 542.883 57.1396 307.873 210.487 295.785C363.834 283.698 342.256 477.601 494.388 485.906C646.52 494.212 770.512 326.723 820.869 293.017C871.226 259.312 1022.79 115.206 1152.8 164.094C1282.8 212.981 1382.43 853.726 1524.71 847.75C1667 841.774 1740.44 382.826 1858.89 369.434C1977.35 356.042 2094.84 527.699 2229.71 536.748C2364.57 545.796 2444.23 417.677 2554.53 418.307C2664.82 418.938 2902.27 591.507 2902.27 591.507" stroke="black"/>
<path d="M-612.539 520.806C-612.539 520.806 -595.042 507.683 -557.207 481.943C-519.372 456.203 -484.479 413.31 -411.317 424.036C-287.503 447.119 -277.821 641.908 -137.699 587.25C2.42229 532.592 63.5488 300.889 213.673 286.472C363.796 272.054 342.986 457.449 495.131 465.754C647.275 474.059 766.868 323.298 820.768 290.279C874.667 257.26 1022.44 114.617 1154 162.807C1285.57 210.997 1383.75 839.475 1525.94 832.812C1668.14 826.15 1738.7 369.78 1859.37 357.423C1980.04 345.066 2092.55 521.225 2229.15 529.767C2365.74 538.308 2441.71 407.691 2553.49 408.018C2665.27 408.344 2902.29 582.298 2902.29 582.298" stroke="black"/>
<path d="M-612.555 511.666C-612.555 511.666 -593.97 501.549 -553.865 475.586C-513.76 449.623 -480.069 402.374 -403.811 412.43C-278.31 434.5 -268.998 630.227 -129.171 576.265C10.6566 522.303 69.9541 293.908 216.855 277.16C363.755 260.413 343.712 437.299 495.87 445.604C648.027 453.91 763.22 319.876 820.663 287.543C878.105 255.21 1022.08 114.031 1155.2 161.523C1288.33 209.015 1385.06 825.226 1527.17 817.877C1669.27 810.528 1736.96 356.735 1859.84 345.413C1982.72 334.092 2090.26 514.752 2228.58 522.788C2366.9 530.823 2439.19 397.708 2552.45 397.73C2665.71 397.753 2902.31 573.091 2902.31 573.091" stroke="black"/>
<path d="M-612.566 502.525C-612.566 502.525 -592.894 495.412 -550.519 469.227C-508.144 443.042 -475.655 391.436 -396.302 400.823C-269.112 421.88 -260.171 618.544 -120.638 565.278C18.8948 512.013 76.3632 286.924 220.041 267.847C363.718 248.77 344.442 417.147 496.613 425.453C648.783 433.758 759.575 316.452 820.561 284.805C881.547 253.159 1021.72 113.443 1156.41 160.237C1291.09 207.031 1386.38 810.975 1528.4 802.94C1670.41 794.904 1735.22 343.688 1860.31 333.402C1985.41 323.116 2087.97 508.278 2228.02 515.807C2368.06 523.336 2436.67 387.723 2551.42 387.441C2666.16 387.16 2902.34 563.882 2902.34 563.882" stroke="black"/>
<path d="M-612.578 493.386C-612.578 493.386 -591.819 489.278 -547.173 462.87C-502.528 436.463 -471.242 380.501 -388.793 389.217C-259.915 409.262 -251.345 606.863 -112.106 554.293C27.1331 501.724 82.7724 279.943 223.226 258.536C363.681 237.129 345.173 396.998 497.356 405.303C649.539 413.609 755.931 313.03 820.46 282.07C884.989 251.11 1021.36 112.856 1157.61 158.953C1293.85 205.049 1387.7 796.727 1529.62 788.005C1671.55 779.283 1733.48 330.644 1860.79 321.393C1988.09 312.142 2085.69 501.806 2227.46 508.829C2369.23 515.851 2434.15 377.739 2550.38 377.154C2666.61 376.569 2902.37 554.675 2902.37 554.675" stroke="black"/>
<path d="M-612.59 484.247C-612.59 484.247 -590.744 483.144 -543.827 456.514C-496.911 429.884 -466.828 369.565 -381.284 377.612C-250.717 396.644 -242.518 595.182 -103.573 543.309C35.3713 491.436 89.1815 272.962 226.412 249.225C363.643 225.488 345.903 376.849 498.099 385.154C650.294 393.46 752.287 309.608 820.359 279.335C888.431 249.061 1021.01 112.271 1158.81 157.669C1296.62 203.068 1389.02 782.479 1530.85 773.07C1672.69 763.662 1731.74 317.6 1861.26 309.385C1990.78 301.169 2083.4 495.335 2226.9 501.851C2370.39 508.367 2431.63 367.757 2549.35 366.867C2667.06 365.978 2902.39 545.469 2902.39 545.469" stroke="black"/>
<path d="M-612.605 475.106C-612.605 475.106 -589.672 477.008 -540.486 450.156C-491.299 423.304 -462.418 358.628 -373.779 366.006C-241.523 384.024 -233.696 583.5 -95.0449 532.323C43.6057 481.146 95.5868 265.979 229.594 239.913C363.602 213.846 346.629 356.698 498.838 365.003C651.046 373.309 748.639 306.184 820.254 276.598C891.868 247.011 1020.64 111.683 1160.01 156.384C1299.38 201.085 1390.33 768.229 1532.08 758.134C1673.82 748.039 1730 304.554 1861.73 297.374C1993.46 290.194 2081.1 488.861 2226.33 494.871C2371.55 500.881 2429.11 357.772 2548.31 356.579C2667.5 355.386 2902.42 536.261 2902.42 536.261" stroke="black"/>
<path d="M-612.617 465.968C-612.617 465.968 -588.596 470.875 -537.14 443.8C-485.683 416.725 -458.004 347.693 -366.27 354.401C-232.326 371.407 -224.869 571.819 -86.5125 521.339C51.8439 470.858 101.996 258.999 232.78 230.602C363.565 202.206 347.359 336.549 499.58 344.855C651.802 353.16 744.995 302.763 820.152 273.863C895.31 244.962 1020.29 111.098 1161.21 155.101C1302.14 199.104 1391.65 753.981 1533.31 743.2C1674.96 732.418 1728.26 291.511 1862.21 285.366C1996.15 279.221 2078.82 482.39 2225.77 487.893C2372.72 493.396 2426.59 347.79 2547.27 346.293C2667.95 344.796 2902.44 527.055 2902.44 527.055" stroke="black"/>
<path d="M-612.629 456.83C-612.629 456.83 -587.521 464.741 -533.794 437.444C-480.067 410.147 -453.59 336.759 -358.76 342.797C-223.128 358.789 -216.042 560.139 -77.9801 510.355C60.0821 460.57 108.405 252.018 235.966 221.292C363.527 190.566 348.089 316.401 500.323 324.706C652.558 333.012 741.35 299.342 820.051 271.128C898.752 242.914 1019.93 110.512 1162.42 153.818C1304.91 197.123 1392.97 739.734 1534.54 728.266C1676.1 716.798 1726.52 278.467 1862.68 273.358C1998.84 268.249 2076.53 475.919 2225.21 480.916C2373.88 485.913 2424.07 337.807 2546.24 336.007C2668.4 334.206 2902.47 517.849 2902.47 517.849" stroke="black"/>
<path d="M-612.641 447.69C-612.641 447.69 -586.446 458.606 -530.448 431.087C-474.451 403.568 -449.176 325.822 -351.251 331.191C-213.931 346.171 -207.216 548.458 -69.4477 499.369C68.3203 450.281 114.814 245.037 239.152 211.981C363.49 178.925 348.819 296.251 501.066 304.556C653.313 312.861 737.706 295.919 819.95 268.392C902.194 240.865 1019.57 109.926 1163.62 152.533C1307.67 195.141 1394.29 725.484 1535.77 713.33C1677.24 701.176 1724.79 265.422 1863.16 261.348C2001.52 257.274 2074.24 469.446 2224.64 473.937C2375.05 478.427 2421.56 327.823 2545.2 325.719C2668.85 323.614 2902.5 508.642 2902.5 508.642" stroke="black"/>
<path d="M-612.656 438.553C-612.656 438.553 -585.374 452.474 -527.106 424.732C-468.838 396.99 -444.766 314.888 -343.746 319.587C-204.737 333.554 -198.393 536.778 -60.9192 488.386C76.5547 439.994 121.22 238.057 242.334 202.671C363.449 167.285 349.545 276.103 501.805 284.408C654.065 292.714 734.058 292.499 819.845 265.658C905.631 238.817 1019.21 109.341 1164.82 151.251C1310.43 193.161 1395.6 711.238 1536.99 698.397C1678.38 685.556 1723.04 252.379 1863.63 249.341C2004.21 246.302 2071.95 462.976 2224.08 466.96C2376.21 470.944 2419.03 317.842 2544.16 315.434C2669.3 313.025 2902.52 499.437 2902.52 499.437" stroke="black"/>
<path d="M-612.668 429.415C-612.668 429.415 -584.299 446.341 -523.76 418.377C-463.222 390.413 -440.353 303.954 -336.237 307.984C-195.54 320.938 -189.566 525.099 -52.3868 477.403C84.7929 429.707 127.629 231.077 245.52 193.362C363.412 155.646 350.275 255.955 502.548 264.261C654.821 272.566 730.413 289.078 819.743 262.924C909.073 236.77 1018.86 108.757 1166.02 149.969C1313.19 191.181 1396.92 696.991 1538.22 683.464C1679.52 669.936 1721.31 239.337 1864.1 237.334C2006.89 235.331 2069.66 456.506 2223.52 459.983C2377.38 463.461 2416.51 307.861 2543.13 305.148C2669.74 302.436 2902.55 490.232 2902.55 490.232" stroke="black"/>
<path d="M-612.68 420.276C-612.68 420.276 -583.223 440.207 -520.415 412.02C-457.606 383.834 -435.939 293.019 -328.728 296.379C-186.342 308.32 -180.74 513.418 -43.8544 466.418C93.0311 419.419 134.038 224.096 248.706 184.051C363.374 144.006 351.006 235.806 503.291 244.111C655.576 252.417 726.769 285.656 819.642 260.189C912.515 234.721 1018.5 108.171 1167.23 148.685C1315.96 189.2 1398.24 682.743 1539.45 668.529C1680.66 654.315 1719.57 226.293 1864.57 225.325C2009.58 224.357 2067.37 450.034 2222.96 453.005C2378.54 455.976 2414 297.878 2542.09 294.861C2670.19 291.845 2902.57 481.025 2902.57 481.025" stroke="black"/>
<path d="M-612.695 411.14C-612.695 411.14 -582.151 434.075 -517.073 405.666C-451.994 377.257 -431.529 282.086 -321.222 284.776C-177.148 295.704 -171.917 501.74 -35.3258 455.436C101.265 409.133 140.443 217.118 251.888 174.742C363.333 132.367 351.732 215.659 504.03 223.964C656.328 232.27 723.121 282.237 819.537 257.455C915.953 232.674 1018.14 107.587 1168.43 147.404C1318.72 187.22 1399.55 668.497 1540.67 653.596C1681.79 638.696 1717.82 213.251 1865.04 213.318C2012.26 213.386 2065.08 443.564 2222.39 446.029C2379.7 448.494 2411.47 287.897 2541.06 284.577C2670.64 281.257 2902.6 471.821 2902.6 471.821" stroke="black"/>
<path d="M-612.707 402.001C-612.707 402.001 -581.076 427.942 -513.727 399.31C-446.378 370.679 -427.115 271.151 -313.713 273.171C-167.951 283.087 -163.09 490.059 -26.7934 444.452C109.504 398.845 146.852 210.137 255.074 165.432C363.296 120.727 352.462 195.51 504.773 203.816C657.084 212.121 719.477 278.815 819.436 254.721C919.395 230.626 1017.78 107.002 1169.63 146.121C1321.48 185.24 1400.87 654.249 1541.9 638.662C1682.93 623.075 1716.09 200.207 1865.52 201.31C2014.95 202.413 2062.79 437.093 2221.83 439.051C2380.87 441.01 2408.96 277.914 2540.02 274.291C2671.09 270.667 2902.62 462.615 2902.62 462.615" stroke="black"/>
<path d="M-612.719 392.865C-612.719 392.865 -580.001 421.81 -510.381 392.957C-440.762 364.103 -422.701 260.218 -306.204 261.569C-158.753 270.471 -154.264 478.381 -18.261 433.47C117.742 388.56 153.262 203.159 258.26 156.124C363.258 109.089 353.192 175.364 505.516 183.669C657.84 191.975 715.832 275.397 819.334 251.988C922.836 228.58 1017.42 106.419 1170.83 144.84C1324.25 183.261 1402.19 640.004 1543.13 623.73C1684.07 607.457 1714.35 187.166 1865.99 189.304C2017.64 191.443 2060.5 430.624 2221.27 432.076C2382.03 433.528 2406.44 267.934 2538.99 264.007C2671.54 260.079 2902.65 453.412 2902.65 453.412" stroke="black"/>
<path d="M-612.73 392.964C-612.73 392.964 -578.925 424.914 -507.035 395.838C-435.145 366.761 -418.287 258.52 -298.695 259.201C-149.556 267.091 -145.437 475.938 -9.72858 431.723C125.98 387.509 159.671 205.415 261.446 156.051C363.221 106.686 353.922 164.452 506.259 172.757C658.595 181.063 712.188 281.212 819.233 258.49C926.278 235.768 1017.07 115.07 1172.04 152.794C1327.01 190.517 1403.51 634.993 1544.36 618.033C1685.21 601.073 1712.61 183.359 1866.47 186.533C2020.33 189.707 2058.21 433.39 2220.7 434.335C2383.2 435.281 2403.92 267.189 2537.95 262.957C2671.98 258.726 2902.68 453.443 2902.68 453.443" stroke="black"/>
<path d="M-612.746 395.585C-612.746 395.585 -577.853 430.54 -503.693 401.241C-429.533 371.943 -413.877 259.345 -291.19 259.356C-140.362 266.233 -136.615 476.017 -1.20007 432.499C134.214 388.98 166.076 210.194 264.628 158.5C363.18 106.806 354.648 156.063 506.998 164.368C659.347 172.674 708.54 289.55 819.128 267.515C929.716 245.48 1016.71 126.244 1173.24 163.27C1329.77 200.296 1404.82 632.505 1545.59 614.858C1686.35 597.212 1710.87 182.075 1866.94 186.284C2023.01 190.493 2055.92 438.678 2220.14 439.117C2384.36 439.556 2401.39 268.966 2536.91 264.431C2672.43 259.895 2902.7 455.997 2902.7 455.997" stroke="black"/>
<path d="M-612.758 398.863C-612.758 398.863 -576.778 436.822 -500.348 407.301C-423.917 377.78 -409.464 260.826 -283.68 260.168C-131.165 266.031 -127.788 476.753 7.33234 433.931C142.453 391.108 172.485 215.63 267.814 161.605C363.143 107.581 355.379 148.33 507.741 156.636C660.103 164.941 704.896 298.545 819.027 277.196C933.158 255.847 1016.35 138.075 1174.44 174.403C1332.53 210.731 1406.14 630.673 1546.81 612.34C1687.49 594.007 1709.13 181.448 1867.41 186.692C2025.7 191.936 2053.63 444.623 2219.58 444.555C2385.52 444.488 2398.88 271.399 2535.88 266.56C2672.88 261.721 2902.73 459.206 2902.73 459.206" stroke="black"/>
<path d="M-612.77 402.928C-612.77 402.928 -575.703 443.893 -497.002 414.149C-418.301 384.406 -405.05 263.095 -276.171 261.767C-121.967 266.618 -118.961 478.277 15.8648 436.151C150.691 394.025 178.894 221.853 271 165.499C363.105 109.145 356.109 141.386 508.484 149.691C660.859 157.997 701.251 308.328 818.925 287.665C936.599 267.003 1015.99 150.694 1175.64 186.324C1335.3 221.954 1407.46 629.629 1548.04 610.61C1688.63 591.591 1707.39 181.608 1867.89 187.888C2028.38 194.168 2051.34 451.356 2219.02 450.782C2386.69 450.208 2396.36 274.621 2534.84 269.478C2673.33 264.335 2902.75 463.205 2902.75 463.205" stroke="black"/>
<path d="M-612.781 407.927C-612.781 407.927 -574.627 451.897 -493.656 421.931C-412.685 391.965 -400.636 266.298 -268.662 264.3C-112.77 268.138 -110.135 480.734 24.3972 439.304C158.929 397.874 185.304 229.01 274.186 170.326C363.068 111.642 356.839 135.374 509.227 143.68C661.614 151.985 697.607 319.044 818.824 299.068C940.041 279.092 1015.63 164.245 1176.85 199.178C1338.06 234.11 1408.78 629.519 1549.27 609.813C1689.77 590.107 1705.65 182.702 1868.36 190.017C2031.07 197.332 2049.05 459.022 2218.45 457.941C2387.85 456.861 2393.84 278.776 2533.81 273.329C2673.77 267.882 2902.78 468.136 2902.78 468.136" stroke="black"/>
<path d="M-612.797 413.992C-612.797 413.992 -573.555 460.966 -490.314 430.778C-407.072 400.589 -396.226 270.565 -261.157 267.898C-103.576 270.724 -101.312 484.256 32.9257 443.523C167.164 402.789 191.709 237.232 277.368 176.219C363.027 115.205 357.565 130.428 509.966 138.734C662.366 147.039 693.959 330.825 818.719 311.536C943.479 292.246 1015.27 178.863 1178.05 213.098C1340.82 247.332 1410.09 630.474 1550.5 610.082C1690.9 589.689 1703.91 184.861 1868.83 193.212C2033.75 201.562 2046.76 467.753 2217.89 466.167C2389.01 464.58 2391.32 283.997 2532.77 278.246C2674.22 272.495 2902.8 474.133 2902.8 474.133" stroke="black"/>
<path d="M-612.809 421.161C-612.809 421.161 -572.48 471.14 -486.968 440.729C-401.456 410.319 -391.812 275.938 -253.648 272.601C-94.3785 274.414 -92.4855 488.884 41.4581 448.846C175.402 408.809 198.118 246.56 280.554 183.216C362.989 119.873 358.295 126.587 510.708 134.893C663.122 143.198 690.315 343.711 818.618 325.108C946.921 306.505 1014.92 194.585 1179.25 228.122C1343.58 261.659 1411.41 632.534 1551.73 611.455C1692.04 590.376 1702.17 188.125 1869.31 197.511C2036.44 206.897 2044.47 477.59 2217.33 475.496C2390.18 473.403 2388.8 290.322 2531.73 284.267C2674.67 278.212 2902.83 481.235 2902.83 481.235" stroke="black"/>
<path d="M-612.82 429.314C-612.82 429.314 -571.405 482.298 -483.622 451.665C-395.84 421.032 -387.398 282.295 -246.138 278.288C-85.181 279.088 -83.6589 494.495 49.9905 455.154C183.64 415.813 204.527 256.87 283.74 191.197C362.952 125.524 359.025 123.73 511.451 132.035C663.878 140.341 686.671 357.581 818.516 339.665C950.362 321.749 1014.56 211.291 1180.45 244.13C1346.35 276.969 1412.73 635.578 1552.96 613.812C1693.18 592.047 1700.43 192.373 1869.78 202.794C2039.13 213.215 2042.19 488.41 2216.76 485.81C2391.34 483.21 2386.28 297.631 2530.7 291.272C2675.12 284.914 2902.85 489.32 2902.85 489.32" stroke="black"/>
<path d="M-612.836 438.171C-612.836 438.171 -570.333 494.16 -480.28 463.304C-390.228 432.449 -382.988 289.355 -238.633 284.679C-75.9873 284.466 -74.8362 500.81 58.519 462.165C191.874 423.52 210.932 267.885 286.922 199.882C362.911 131.879 359.752 121.577 512.19 129.882C664.629 138.188 683.022 372.155 818.411 354.925C953.8 337.696 1014.2 228.701 1181.65 260.843C1349.11 292.984 1414.05 639.325 1554.18 616.874C1694.32 594.422 1698.69 197.325 1870.25 208.781C2041.81 220.238 2039.89 499.934 2216.2 496.828C2392.51 493.722 2383.76 305.644 2529.66 298.981C2675.56 292.319 2902.88 498.11 2902.88 498.11" stroke="black"/>
<path d="M-612.848 447.447C-612.848 447.447 -569.258 506.44 -476.935 475.362C-384.612 444.284 -378.575 296.834 -231.124 291.489C-66.7898 290.262 -66.0096 507.544 67.0515 469.595C200.113 431.646 217.342 279.319 290.108 208.986C362.874 138.653 360.482 119.842 512.933 128.147C665.385 136.453 679.378 387.148 818.31 370.605C957.242 354.061 1013.84 246.53 1182.86 277.973C1351.87 309.417 1415.37 643.492 1555.41 620.353C1695.45 597.215 1696.95 202.695 1870.72 215.187C2044.5 227.679 2037.6 511.877 2215.64 508.264C2393.67 504.652 2381.24 314.075 2528.62 307.109C2676.01 300.143 2902.9 507.318 2902.9 507.318" stroke="black"/>
<path d="M-612.859 456.957C-612.859 456.957 -568.182 518.955 -473.589 487.654C-378.996 456.354 -374.161 304.547 -223.615 298.532C-57.5923 296.293 -57.183 514.512 75.5839 477.259C208.351 440.007 223.751 290.986 293.293 218.324C362.836 145.661 361.212 118.342 513.676 126.647C666.141 134.952 675.734 402.375 818.209 386.518C960.684 370.661 1013.48 264.592 1184.06 295.338C1354.64 326.084 1416.68 647.892 1556.64 624.067C1696.59 600.243 1695.21 208.3 1871.2 221.827C2047.19 235.354 2035.32 524.054 2215.08 519.935C2394.84 515.816 2378.72 322.741 2527.59 315.471C2676.46 308.201 2902.93 516.76 2902.93 516.76" stroke="black"/>
<path d="M-612.871 466.597C-612.871 466.597 -567.107 531.6 -470.243 500.077C-373.379 468.554 -369.747 312.391 -216.106 305.706C-48.3947 302.454 -48.3564 521.61 84.1163 485.054C216.589 448.497 230.16 302.785 296.479 227.792C362.799 152.8 361.942 116.971 514.419 125.277C666.896 133.582 672.089 417.732 818.107 402.562C964.125 387.391 1013.13 282.786 1185.26 312.834C1357.4 342.882 1418 652.423 1557.87 627.912C1697.73 603.4 1693.47 214.035 1871.67 228.597C2049.87 243.16 2033.03 536.361 2214.51 531.736C2396 527.11 2376.2 331.537 2526.55 323.963C2676.91 316.389 2902.96 526.333 2902.96 526.333" stroke="black"/>
<path d="M-612.883 476.312C-612.883 476.312 -566.031 544.32 -466.897 512.575C-367.763 480.83 -365.333 320.31 -208.597 312.955C-39.1972 308.69 -39.5298 528.783 92.6487 492.923C224.827 457.063 236.569 314.658 299.665 237.335C362.762 160.013 362.672 115.676 515.162 123.982C667.652 132.287 668.445 433.164 818.006 418.68C967.567 404.196 1012.77 301.054 1186.47 330.404C1360.16 359.755 1419.32 657.029 1559.1 631.831C1698.87 606.633 1691.74 219.845 1872.15 235.443C2052.56 251.041 2030.74 548.743 2213.95 543.612C2397.17 538.48 2373.68 340.408 2525.52 332.53C2677.36 324.653 2902.98 535.981 2902.98 535.981" stroke="black"/>
<path d="M-612.898 486.077C-612.898 486.077 -564.96 557.09 -463.555 525.123C-362.151 493.155 -360.923 328.279 -201.091 320.255C-30.0036 314.977 -30.7071 536.007 101.177 500.843C233.062 465.679 242.974 326.581 302.847 246.929C362.72 167.277 363.398 114.431 515.901 122.737C668.404 131.042 664.797 448.647 817.901 434.849C971.005 421.052 1012.41 319.372 1187.67 348.025C1362.92 376.678 1420.64 661.685 1560.32 635.801C1700.01 609.916 1689.99 225.705 1872.62 242.338C2055.24 258.972 2028.45 561.176 2213.39 555.538C2398.33 549.899 2371.16 349.33 2524.48 341.148C2677.8 332.966 2903.01 545.678 2903.01 545.678" stroke="black"/>
<path d="M-612.91 495.875C-612.91 495.875 -563.884 569.892 -460.209 537.702C-356.535 505.512 -356.509 336.279 -193.582 327.586C-20.8061 321.295 -21.8805 543.262 109.71 508.794C241.3 474.327 249.383 338.536 306.033 256.554C362.683 174.572 364.128 113.218 516.644 121.524C669.16 129.829 661.153 464.161 817.8 451.05C974.447 437.939 1012.05 337.722 1188.87 365.677C1365.69 393.632 1421.95 666.373 1561.55 639.802C1701.15 613.231 1688.25 231.597 1873.09 249.266C2057.93 266.935 2026.16 573.64 2212.82 567.496C2399.49 561.351 2368.64 358.283 2523.45 349.797C2678.25 341.312 2903.03 555.408 2903.03 555.408" stroke="black"/>
<path d="M-612.922 505.692C-612.922 505.692 -562.809 582.714 -456.864 550.302C-350.919 517.89 -352.095 344.3 -186.073 334.937C-11.6085 327.633 -13.0539 550.537 118.242 516.766C249.538 482.995 255.793 350.511 309.219 266.199C362.646 181.888 364.859 112.025 517.387 120.331C669.915 128.636 657.508 479.695 817.698 467.271C977.889 454.846 1011.69 356.093 1190.07 383.35C1368.45 410.607 1423.27 671.081 1562.78 643.824C1702.29 616.566 1686.52 237.509 1873.57 256.213C2060.62 274.917 2023.87 586.125 2212.26 579.474C2400.66 572.822 2366.12 367.256 2522.41 358.467C2678.7 349.677 2903.06 565.158 2903.06 565.158" stroke="black"/>
<path d="M-612.938 515.527C-612.938 515.527 -561.737 595.554 -453.522 562.919C-345.306 530.285 -347.686 352.339 -178.568 342.306C-2.4149 333.989 -4.23116 557.831 126.771 524.755C257.772 491.68 262.198 362.504 312.401 275.862C362.605 189.221 365.585 110.85 518.126 119.155C670.667 127.461 653.86 495.247 817.593 483.509C981.326 471.772 1011.33 374.481 1191.27 401.04C1371.21 427.6 1424.59 675.806 1564 647.863C1703.42 619.919 1684.77 243.439 1874.04 263.178C2063.3 282.918 2021.58 598.627 2211.7 591.469C2401.82 584.312 2363.6 376.247 2521.37 367.154C2679.14 358.061 2903.08 574.925 2903.08 574.925" stroke="black"/>
<path d="M-612.949 525.372C-612.949 525.372 -560.662 608.404 -450.176 575.546C-339.69 542.689 -343.272 360.387 -171.059 349.684C6.78262 340.355 4.59544 565.133 135.303 532.754C266.011 500.376 268.607 374.507 315.587 285.535C362.567 196.564 366.315 109.684 518.869 117.99C671.423 126.295 650.216 510.809 817.492 499.758C984.768 488.706 1010.98 392.878 1192.48 418.74C1373.98 444.602 1425.91 680.542 1565.23 651.912C1704.56 623.281 1683.04 249.378 1874.51 270.153C2065.99 290.928 2019.29 611.139 2211.14 603.475C2402.98 595.811 2361.08 385.248 2520.34 375.851C2679.59 366.453 2903.11 584.703 2903.11 584.703" stroke="black"/>
<path d="M-612.961 535.227C-612.961 535.227 -559.586 621.264 -446.83 588.184C-334.074 555.105 -338.858 368.446 -163.549 357.073C15.9802 346.731 13.422 572.447 143.835 540.764C274.249 509.082 275.016 386.52 318.773 295.219C362.53 203.918 367.045 108.53 519.612 116.835C672.179 125.141 646.572 526.382 817.391 516.017C988.21 505.652 1010.62 411.287 1193.68 436.451C1376.74 461.615 1427.22 685.288 1566.46 655.971C1705.7 626.655 1681.3 255.329 1874.99 277.139C2068.67 298.949 2017 623.661 2210.57 615.491C2404.15 607.32 2358.56 394.259 2519.3 384.558C2680.04 374.857 2903.14 594.491 2903.14 594.491" stroke="black"/>
<path d="M-612.977 545.09C-612.977 545.09 -558.514 634.131 -443.488 600.829C-328.462 567.527 -334.448 376.511 -156.044 364.47C25.1738 353.114 22.2447 579.767 152.364 548.781C282.483 517.795 281.422 398.54 321.955 304.909C362.489 211.278 367.771 107.382 520.351 115.687C672.93 123.993 642.924 541.961 817.286 532.283C991.648 522.604 1010.26 429.702 1194.88 454.168C1379.5 478.635 1428.54 690.041 1567.69 660.038C1706.84 630.035 1679.55 261.286 1875.46 284.131C2071.36 306.977 2014.71 636.191 2210.01 627.514C2405.31 618.837 2356.04 403.277 2518.26 393.273C2680.49 383.268 2903.16 604.285 2903.16 604.285" stroke="black"/>
<path d="M-612.988 554.955C-612.988 554.955 -557.439 647.001 -440.142 613.477C-322.846 579.953 -330.034 384.58 -148.535 371.869C34.3713 359.501 31.0713 587.091 160.896 556.801C290.721 526.511 287.831 410.563 325.141 314.603C362.451 218.642 368.501 106.237 521.094 114.542C673.686 122.848 639.279 557.544 817.184 548.552C995.089 539.56 1009.9 448.12 1196.08 471.889C1382.26 495.657 1429.86 694.797 1568.92 664.107C1707.98 633.418 1677.82 267.246 1875.93 291.127C2074.04 315.008 2012.42 648.723 2209.45 639.54C2406.47 630.357 2353.52 412.299 2517.23 401.99C2680.94 391.681 2903.19 614.083 2903.19 614.083" stroke="black"/>
</svg>
